<?xml version="1.0" encoding="UTF-8" standalone="no"?>
<svg xmlns="http://www.w3.org/2000/svg" width="48" height="48" viewBox="0 0 48 48">
  <!-- Background Circle -->
  <circle cx="24" cy="24" r="22" fill="#1A374D" />
  
  <!-- Crystal Shape -->
  <g transform="translate(12, 8) scale(0.265)">
    <!-- Main Crystal -->
    <path d="M45,0 L90,40 L45,120 L0,40 Z" fill="#2196F3" opacity="0.9" />
    
    <!-- Crystal Facets -->
    <path d="M45,0 L90,40 L45,50 L0,40 Z" fill="#64B5F6" />
    <path d="M45,50 L90,40 L45,120 Z" fill="#0D47A1" opacity="0.8" />
    <path d="M0,40 L45,50 L45,120 Z" fill="#1565C0" opacity="0.8" />
    
    <!-- Highlight -->
    <path d="M30,20 L45,25 L40,40 L25,35 Z" fill="white" opacity="0.6" />
  </g>
  
  <!-- Stock Ticker Line -->
  <path d="M10,32 L14,28 L18,30 L22,24 L26,27 L30,23 L34,26 L38,19 L42,22" 
        stroke="#4CAF50" 
        stroke-width="1.5" 
        fill="none" 
        stroke-linecap="round" 
        stroke-linejoin="round" />
</svg>
